<svg xmlns="http://www.w3.org/2000/svg" fill="currentColor" viewBox="0 0 24 24" width="1.2em" height="1.2em">
                              <path fill-rule="evenodd" d="M 11 2 c 5.571 0 9 4.335 9 8 c 0 6 -6.475 9.764 -11.481 8.022 c -0.315 -0.07 -0.379 -0.124 -0.78 0.078 c -1.455 0.54 -2.413 0.921 -3.525 1.122 c -0.483 0.087 -0.916 -0.25 -0.588 -0.581 c 0 0 0.677 -0.417 0.842 -1.904 c 0.064 -0.351 -0.14 -0.879 -0.454 -1.171 A 8.833 8.833 0 0 1 2 10 c 0 -3.87 3.394 -8 9 -8 Z m 10.14 9.628 c 0.758 0.988 0.86 2.009 0.86 3.15 c 0 1.195 -0.619 3.11 -1.368 3.938 c -0.209 0.23 -0.354 0.467 -0.308 0.722 c 0.12 1.073 0.614 1.501 0.614 1.501 c 0.237 0.239 -0.188 0.562 -0.537 0.5 c -0.803 -0.146 -1.495 -0.42 -2.546 -0.811 c -0.29 -0.146 -0.336 -0.106 -0.563 -0.057 c -2.043 0.711 -4.398 0.475 -6.083 -0.927 c 5.965 -0.524 8.727 -3.03 9.93 -8.016 Z" /></svg>