<svg xmlns="http://www.w3.org/2000/svg"  fill="currentColor" viewBox="0 0 24 24" width="13" height="14">
                                    <path fill-rule="evenodd" d="M 16 17.649 V 2.931 a 0.921 0.921 0 0 0 -0.045 -0.283 a 0.943 0.943 0 0 0 -1.182 -0.604 L 4.655 5.235 A 0.932 0.932 0 0 0 4 6.122 v 14.947 c 0 0.514 0.421 0.931 0.941 0.931 H 19.06 c 0.52 0 0.941 -0.417 0.941 -0.93 V 7.292 a 0.936 0.936 0 0 0 -0.941 -0.931 h -0.773 v 12.834 a 0.934 0.934 0 0 1 -0.83 0.924 L 6.464 21.416 c -0.02 0.002 2.94 -0.958 8.883 -2.881 a 0.932 0.932 0 0 0 0.653 -0.886 Z" /></svg>