​<svg xmlns="http://www.w3.org/2000/svg"  fill="currentColor" viewBox="0 0 24 24" width="1.2em" height="1.2em">
                            <path fill-rule="evenodd" d="M 19.947 3.129 c -0.633 0.136 -3.927 0.639 -5.697 0.385 c -3.133 -0.45 -4.776 -2.54 -9.949 -0.888 c -0.997 0.413 -1.277 1.038 -1.277 2.019 L 3 20.808 c 0 0.3 0.101 0.54 0.304 0.718 a 0.97 0.97 0 0 0 0.73 0.304 c 0.275 0 0.519 -0.102 0.73 -0.304 c 0.202 -0.179 0.304 -0.418 0.304 -0.718 v -6.58 c 4.533 -1.235 8.047 0.668 8.562 0.864 c 2.343 0.893 5.542 0.008 6.774 -0.657 c 0.397 -0.178 0.596 -0.474 0.596 -0.887 V 3.964 c 0 -0.599 -0.42 -0.972 -1.053 -0.835 Z" /></svg>