<svg xmlns="http://www.w3.org/2000/svg" fill="currentColor" viewBox="0 0 24 24" width="1.2em" height="1.2em">
                            <path fill-rule="evenodd" d="M 4 10 V 8 a 1 1 0 1 1 2 0 v 2 h 2 a 1 1 0 0 1 0 2 H 6 v 2 a 1 1 0 0 1 -2 0 v -2 H 2 a 1 1 0 0 1 0 -2 h 2 Z m 10.455 2 c -2.21 0 -4 -1.79 -4 -4 s 1.79 -4 4 -4 s 4 1.79 4 4 s -1.79 4 -4 4 Z m -7 6 c 0 -2.66 4.845 -4 7.272 -4 C 17.155 14 22 15.34 22 18 v 1.375 c 0 0.345 -0.28 0.625 -0.625 0.625 H 8.08 a 0.625 0.625 0 0 1 -0.625 -0.625 V 18 Z" /></svg>